<svg width="1254" height="1254" viewBox="0 0 1254 1254" fill="none" xmlns="http://www.w3.org/2000/svg">
<path d="M1013.08 497.092C1015.21 497.579 1033.07 510.229 1037.75 512.772C1075.76 533.403 1106.02 542.026 1148.59 545.643C1148.76 558.158 1150.18 571.196 1150.4 583.891C1152.27 690.147 1126.66 782.158 1029.6 837.712L1019.28 842.8C995.245 829.636 970.202 805.884 953.345 784.564C906.994 725.93 895.048 650.463 897.522 577.637C897.956 564.889 898.648 547.21 900.216 534.523C944.277 533.219 976.937 521.949 1013.08 497.092ZM917.862 553.726C912.743 663.095 925.834 752.149 1019.98 820.218L1029.65 814.646C1078.86 784.637 1107.79 740.062 1121.2 684.63C1131.23 643.115 1130.66 606.065 1130.17 563.914C1094.08 559.487 1063.66 550.086 1031.7 532.131C1026.88 529.425 1017.59 523.888 1013.45 520.529C987.628 537.705 949.316 553.313 917.862 553.726Z" fill="#015C6C"/>
<path d="M1013.19 533.784C1018.51 537.348 1023.99 540.674 1029.62 543.754C1031.35 544.639 1039.24 548.514 1040.53 549.4L1048.41 553.107C1056.07 556.545 1063.53 559.028 1070.78 562.217C1074.33 563.068 1077.15 564.274 1080.37 565.11C1091.79 569.237 1106.94 571.89 1118.99 573.559C1121 661.253 1109.04 753.331 1026.65 803.913C1024.17 805.432 1021.65 807.054 1018.73 806.369L1018.28 805.162C1019.03 802.53 1031.57 795.292 1034.53 793.296C1041.62 788.483 1048.25 783.022 1054.33 776.99C1091.35 740.46 1095.47 690.319 1095.93 641.181C1075.56 658.326 1063.48 657.077 1039.09 661.773C996.844 669.911 965.935 715.411 971.93 757.574C929.993 692.713 926.105 639.283 928.315 563.493C950.26 563.825 985.645 549.734 1004.65 538.961L1013.19 533.784Z" fill="#028CB5"/>
<path d="M1013.19 533.784C1018.51 537.348 1023.99 540.674 1029.62 543.754C1022.3 550.417 1018.32 551.053 1008.76 545.716C1005.84 544.091 1005.27 542.175 1004.65 538.961L1013.19 533.784Z" fill="#0DAED3"/>
<path d="M1070.78 562.217C1074.33 563.069 1077.15 564.274 1080.37 565.11C1077.11 566.028 1074.18 569.879 1070.08 568.339C1069.11 566.273 1069.33 567.377 1069.75 564.864L1071.83 563.546L1070.58 563.104L1070.78 562.217Z" fill="#0DAED3"/>
<path d="M1040.53 549.4L1048.41 553.107C1046.08 554.751 1045.72 554.966 1043.2 554.07C1041.43 552.156 1041.43 551.922 1040.53 549.4Z" fill="#0DAED3"/>
<path d="M994.346 572.046L1015.53 571.972C1020.14 585.514 1024.88 599.017 1029.71 612.482C1034.43 625.782 1037.07 632.339 1038.93 646.429C1025.95 646.031 1022.44 645.841 1018.64 633.111C1018.22 631.715 1015.96 631.923 1014.74 631.868L991.609 631.929C986.263 650.206 986.361 645.124 968.898 645.755C970.478 640.33 972.989 639.607 974.923 633.38L974.752 632.468C974.685 632.101 974.63 631.733 974.556 631.366C973.84 627.674 991.572 579.965 994.346 572.046Z" fill="#F8FDFD"/>
<path d="M1004.71 589.915C1007.07 593.948 1014.56 613.058 1013.15 617.344C1011.2 618.17 1007.95 617.913 1005.71 617.907L995.828 617.95C998.877 608.678 1001.77 599.232 1004.71 589.915Z" fill="#015C6C"/>
<path d="M1052.56 572.045C1056.9 572.01 1062.74 571.77 1066.88 572.452C1068.83 576.128 1069.36 643.734 1068.13 646.882L1066.79 647.274C1061.82 647.243 1056.86 648.094 1052.95 645.247C1049.17 638.028 1051.02 605.407 1051.13 595.751C1051.15 593.618 1053.96 586.308 1053.9 583.669C1053.79 578.98 1051.54 576.764 1052.56 572.045Z" fill="#F8FDFD"/>
<path d="M1048.57 669.206C1064.49 665.808 1073.99 666.928 1088.28 655.735C1087.55 668.441 1086.3 682.603 1083.74 695.064C1083.24 701.168 1081.56 707.549 1080.12 713.506C1071.84 747.942 1054.82 768.093 1027.06 788.477C1026.98 780.119 1026.99 771.761 1027.08 763.403C1038.03 748.181 1056.69 722.274 1063.28 705.154C1085.65 699.515 1063.03 677.809 1056.43 694.457C1055.36 697.139 1057.74 701.187 1059.32 703.391C1054.61 713.029 1050.81 720.842 1044.26 729.481C1043.18 732.439 1025.54 756.937 1022.65 761.027C1021.83 767.744 1021.99 784.46 1022.37 791.398C1019.99 793.032 1017.93 794.704 1015.68 796.498C1015.5 782.011 1015.21 767.205 1015.71 752.737C1022.27 744.391 1028.78 736.008 1035.25 727.589C1034.82 718.448 1035.16 708.877 1035.37 699.711C1057.68 680.301 1008.16 679.634 1030.5 700.054C1030.61 702.944 1030.59 705.252 1030.5 708.149C1028.84 712.386 1029.65 719.531 1029.98 724.142C1027.27 719.139 1024.75 717.97 1022.5 713.733L1022.45 714.676C1022.3 717.076 1022.47 718.221 1021.25 720.229C1019.91 721.074 1020.49 721.056 1019.24 721.025C1021.92 718.637 1022.62 714.731 1020.95 711.559C1019.26 708.394 1015.63 706.783 1012.15 707.659C1008.67 708.54 1006.24 711.682 1006.27 715.27C1005.44 711.284 1006.98 710.867 1008.23 708.069C1002.25 705.326 998.884 705.295 999.894 697.758L996.912 699.086C1005.13 686.136 1020.94 676.645 1035.28 671.974C1038.63 671.208 1043.78 670.229 1046.73 668.814L1048.57 669.206Z" fill="#4E9510"/>
<path d="M1035.25 727.589L1035.87 728.195C1037.07 723.431 1035.13 706.813 1036.3 702.142L1036.5 702.987C1037.01 705.056 1037.04 706.201 1038.56 707.628C1042.65 709.11 1049.86 711.124 1051.68 714.859C1051.49 718.907 1044.3 724.032 1044.26 729.481C1043.18 732.438 1025.54 756.937 1022.65 761.027C1021.83 767.744 1021.99 784.46 1022.37 791.397C1019.99 793.032 1017.93 794.704 1015.68 796.498C1015.5 782.011 1015.21 767.205 1015.71 752.736C1022.27 744.391 1028.78 736.008 1035.25 727.589Z" fill="#529A14"/>
<path d="M1048.57 669.206C1064.49 665.808 1073.99 666.928 1088.28 655.735C1087.55 668.441 1086.3 682.603 1083.74 695.064C1082.61 691.292 1081.9 691.298 1078.59 688.812C1075 679.517 1075.8 677.325 1065.4 675.874C1062.42 675.458 1057.95 673.388 1056.5 670.388C1054.08 669.133 1051.51 669.433 1048.57 669.206Z" fill="#77B214"/>
<path d="M1035.28 671.974C1038.63 671.209 1043.78 670.229 1046.73 668.814C1046.65 672.684 1048.25 672.721 1048.67 674.625C1051.27 686.473 1037.67 684.232 1034.22 674.184L1035.28 671.974Z" fill="#77B214"/>
<path d="M996.911 699.086L999.893 697.758C998.883 705.295 1002.25 705.326 1008.23 708.069C1006.98 710.867 1005.44 711.284 1006.27 715.27C1006.29 718.331 1008.1 721.093 1010.9 722.336C1013.69 723.573 1016.96 723.064 1019.24 721.025C1020.49 721.056 1019.91 721.074 1021.25 720.229C1022.47 718.221 1022.3 717.076 1022.45 714.676L1022.5 713.733C1024.75 717.97 1027.27 719.139 1029.98 724.142C1029.65 719.531 1028.84 712.386 1030.5 708.149C1030.68 713.923 1030.67 719.709 1030.48 725.489C1025.36 733.602 1016.58 742.358 1010.85 751.671C1010.41 766.783 1010.74 783.585 1010.73 798.825L1003.97 793.063C1003.48 778.153 1003.73 761.413 1003.59 746.338C1007.22 743.423 1011.97 737.307 1007.66 733.859C998.932 726.855 985.663 735.91 999.042 746.16C998.865 758.48 998.338 776.972 999.091 788.881C986.282 775.355 980.887 772.098 979.761 752.198C978.818 735.476 985.443 711.431 996.911 699.086Z" fill="#328518"/>
<path d="M1012.57 712.858C1013.39 712.392 1014.39 712.417 1015.18 712.925C1015.97 713.427 1016.42 714.333 1016.34 715.264C1016.26 716.201 1015.67 717.015 1014.81 717.383C1013.57 717.903 1012.15 717.376 1011.55 716.176C1010.96 714.97 1011.4 713.519 1012.57 712.858Z" fill="#529A14"/>
<path d="M1063 693.98C1064.38 693.184 1066.14 693.656 1066.92 695.04C1067.71 696.424 1067.22 698.181 1065.83 698.952C1064.46 699.718 1062.73 699.234 1061.95 697.869C1061.17 696.503 1061.64 694.77 1063 693.98Z" fill="#529A14"/>
<path d="M1031.45 689.804C1032.57 688.978 1034.14 689.217 1034.96 690.343C1035.77 691.47 1035.52 693.044 1034.38 693.852C1033.26 694.642 1031.71 694.391 1030.91 693.276C1030.1 692.168 1030.34 690.619 1031.45 689.804Z" fill="#529A14"/>
<path d="M203.262 956.971L204.26 954.638C207.391 953.64 222.31 958.502 226.573 959.396C239.446 962.114 252.95 966.468 265.602 969.462C272.888 971.183 283.316 970.209 290.924 971.477C293.522 971.691 297.859 974.036 300.867 973.993C301.142 973.46 301.417 972.922 301.692 972.383C304.538 975.426 307.8 979.847 311.669 980.661L312.18 981.047C317.572 985.211 323.719 991.53 329.167 996.238C340.55 1005.99 352.287 1015.31 364.355 1024.2C449.079 1086.07 556.193 1133.18 662.452 1118.39C709.251 1111.87 752.247 1096.04 794.961 1076.41C801.672 1073.36 808.285 1070.1 814.781 1066.63C818.033 1064.91 824.039 1061.45 827.046 1060.21C830.94 1061.76 836.065 1058.33 840.768 1058.54C858.8 1059.37 876.214 1056.76 894.05 1054.89C897.002 1054.58 902.261 1056.1 903.792 1055.75C915.224 1053.18 926.741 1052.51 937.855 1048.5C944.443 1046.3 955.054 1045.48 961.961 1044.98C965.764 1044.71 967.576 1046.31 972.432 1045.3C970.656 1047.71 957.706 1057.97 954.834 1060.24C849.352 1143.53 710.604 1189.84 575.963 1173.65C426.959 1155.73 295.278 1073.96 203.262 956.971Z" fill="#0A6723"/>
<path d="M601.735 446.619C604.892 446.317 607.123 445.778 610.049 446.873L610.667 447.669C611.385 448.583 611.05 448.292 611.649 448.733L612.044 446.836C613.971 446.134 613.028 446.122 614.969 446.955C616.598 448.748 622.543 462.784 624.105 466.169L646.962 516.21C651.071 525.33 655.749 536.599 660.243 545.376C654.322 545.212 648.805 544.85 642.933 545.599L641.721 545.746C639.155 547.665 635.102 550.839 635.169 554.176C635.353 562.768 648.885 587.579 652.981 595.002C650.128 599.169 649.381 599.759 649.54 604.735C652.828 611.671 652.797 617.233 656.441 623.993C666.213 638.946 667.242 637.495 683.982 638.946C685.69 640.923 693.675 650.579 694.459 652.551C703.619 675.531 713.22 698.658 721.455 721.968C722.49 724.895 721.957 734.306 721.731 737.514C721.535 740.576 721.192 743.619 720.69 746.638C718.522 747.93 712.387 751.953 710.458 752.357C709.099 749.705 709.154 749.118 708.725 746.087C699.369 751.181 689.762 757.763 680.81 763.66C678.998 763.207 672.036 761.315 670.652 761.603C666.997 760.911 658.32 759.753 656.294 757.059C654.628 755.908 652.381 755.363 650.403 754.745L651.046 754.347C652.203 751.983 649.834 738.513 649.154 735.218L647.972 734.569L647.048 734.496L646.925 733.975L645.431 733.388C644.317 731.845 644.709 732.745 645.088 730.167C641.004 730.644 629.646 734.955 625.678 736.884C621.888 738.206 610.141 743.068 607.29 743.001C604.262 742.26 601.919 741.568 598.972 740.631L594.638 739.676C591.586 738.709 586.048 737.625 582.753 736.872C579.291 735.402 560.193 731.361 556.211 731.128L554.427 730.448C553.695 731.575 553.881 730.951 553.908 732.347C551.604 735.108 550.716 734.986 547.378 733.186C545.324 732.218 536.428 729.855 534.966 732.292C531.971 732.934 530.566 732.512 527.623 731.771L526.188 730.546C525.623 729.052 525.284 728.526 525.285 726.928C528.559 725.244 529.659 729.046 534.709 725.979L531.698 725.079C525.225 724.001 509.875 720.321 504.908 720.094C500.409 718.637 495.371 717.951 490.707 717.284C489.095 720.186 489.951 719.188 487.088 720.952C480.489 718.38 478.636 717.559 471.97 719.219C461.32 720.015 457.944 720.731 447.832 717.315C450.659 710.922 455.876 701.897 459.348 695.419L481.26 654.559L496.987 625.01C499.16 620.932 502.961 613.266 505.369 609.921C510.381 598.794 519.123 583.551 525.033 572.46L558.91 508.306L578.936 469.754C580.701 466.327 590.021 447.103 592.765 446.786L593.268 448.167L594.524 448.676L595.568 447.081C597.83 445.987 599.112 446.39 601.735 446.619Z" fill="#DEF7FC"/>
<path d="M594.523 448.676L595.567 447.081C597.829 445.987 599.111 446.39 601.734 446.619C601.682 460.26 601.348 473.528 600.954 487.145C600.874 489.898 600.5 501.484 600.787 503.796C600.348 545.328 598.761 588.369 597.646 629.957C597.322 644.303 596.915 658.65 596.427 672.99C596.184 679.596 595.798 692.455 594.593 698.719C583.371 696.717 574.878 700.139 565.585 698.78C557.125 697.549 555.227 693.079 543.789 693.422C544.263 679.462 552.278 647.579 555.524 632.057L587.435 484.372C589.007 480.496 595.332 452.55 594.523 448.676Z" fill="#B2EDFC"/>
<path d="M505.367 609.921C510.38 598.794 519.121 583.551 525.031 572.46L558.908 508.306L578.934 469.754C580.699 466.327 590.019 447.103 592.763 446.786L593.266 448.167C590.47 455.353 588.044 469.968 586.212 477.881C580.95 500.118 575.818 522.387 570.815 544.684C566.609 563.183 562.008 581.585 558.245 600.173C557.06 606.021 555.642 609.261 554.814 615.55L554.257 615.684C553.022 611.551 551.664 609.034 547.008 607.942L546.324 608.707C545.783 608.255 545.242 607.801 544.7 607.348C541.383 607.523 536.38 607.776 533.211 607.77C527.865 607.757 523.087 606.402 517.908 606.674C516.628 605.459 516.681 605.538 515.878 603.97C513.371 604.572 513.481 604.486 511.522 606.134C511.18 604.801 511.496 604.044 511.729 602.592L511.155 602.436C508.843 605.296 508.441 608.147 505.367 609.921Z" fill="#94E5F6"/>
<path d="M611.648 448.733L612.043 446.836C613.971 446.134 613.028 446.122 614.969 446.955C616.598 448.748 622.543 462.784 624.105 466.169L646.962 516.21C651.07 525.33 655.748 536.599 660.243 545.376C654.322 545.212 648.805 544.85 642.933 545.599L641.721 545.746C639.155 547.665 635.102 550.839 635.169 554.176C635.353 562.768 648.885 587.579 652.981 595.002C650.128 599.169 649.381 599.759 649.54 604.735L648.738 605.854C648.033 602.655 648.064 601.95 648.168 598.725L647.207 598.396L645.137 599.426C643.521 601.525 643.631 601.915 642.847 604.306C642.468 605.451 638.647 608.676 637.202 610.268C636.694 616.848 644.556 655.998 643.313 658.307L642.663 657.67L642.645 657.088L642.602 656.121C642.351 649.514 640.98 644.652 640.092 638.235L632.867 586.861L619.659 498.67C618.594 491.543 613.763 452.779 611.648 448.733Z" fill="#8DE7FD"/>
<path d="M653.175 732.862C654.057 732.36 656.059 731.3 656.941 731.478C663.462 732.819 708.007 741.458 711.167 743.981C710.175 745.206 710.058 745.193 708.724 746.087C699.368 751.182 689.761 757.764 680.809 763.661C678.996 763.207 672.034 761.315 670.65 761.603C666.995 760.911 658.319 759.754 656.292 757.06C654.626 755.909 652.379 755.364 650.402 754.745L651.044 754.347C652.202 751.984 649.832 738.513 649.152 735.219L647.971 734.57C650.046 734.019 651.167 733.633 653.175 732.862Z" fill="#94E5F6"/>
<path d="M653.175 732.861L656.292 757.06C654.626 755.908 652.379 755.364 650.402 754.745L651.044 754.347C652.202 751.984 649.832 738.513 649.152 735.219L647.971 734.57C650.046 734.019 651.167 733.633 653.175 732.861Z" fill="#B5EEFA"/>
<path d="M600.786 503.797C602.53 510.136 600.855 533.512 600.719 540.92L598.965 618.299L597.289 680.276C597.128 685.273 597.299 711.186 594.701 713.825L557.408 707.475C553.799 706.869 543.516 705.467 540.5 704.475C539.245 697.207 555.162 628.561 557.886 615.941C567.22 572.003 576.834 528.126 586.726 484.312L587.434 484.372L555.524 632.057C552.278 647.579 544.263 679.462 543.789 693.423C555.227 693.08 557.125 697.549 565.584 698.78C574.878 700.139 583.371 696.717 594.593 698.719C595.797 692.455 596.184 679.597 596.427 672.99C596.915 658.65 597.321 644.303 597.646 629.957C598.761 588.369 600.347 545.329 600.786 503.797Z" fill="#F8FDFD"/>
<path d="M595.34 719.018L599.931 719.636C605.487 720.744 644.144 727.749 646.152 729.102L645.087 730.168C641.003 730.645 629.645 734.956 625.677 736.885C621.887 738.207 610.139 743.069 607.288 743.002C604.26 742.261 601.917 741.569 598.971 740.632L594.637 739.677C595.052 732.862 595.155 725.851 595.34 719.018Z" fill="#BCE28F"/>
<path d="M595.34 719.018L599.931 719.636C598.961 722.832 599.279 736.401 598.971 740.632L594.637 739.677C595.052 732.862 595.155 725.851 595.34 719.018Z" fill="#D4ECC8"/>
<path d="M547.377 733.186C550.178 731.41 549.594 731.428 549.609 728.44C556.408 725.911 589.43 717.67 595.341 719.017C595.156 725.85 595.053 732.861 594.637 739.676C591.585 738.709 586.046 737.625 582.752 736.872C579.29 735.402 560.192 731.361 556.21 731.128L554.426 730.449C553.694 731.575 553.88 730.951 553.907 732.347C551.603 735.108 550.715 734.986 547.377 733.186Z" fill="#AED97A"/>
<path d="M532.212 709.27C533.855 709.166 539.067 709.411 540.487 709.919C538.8 710.905 539.247 710.231 538.741 712.123C537.555 716.568 537.232 721.436 536.213 725.9L534.708 725.979L531.696 725.079C525.223 724.002 509.873 720.322 504.906 720.095C500.408 718.638 495.37 717.952 490.706 717.285L490.457 717.034L490.693 716.47L532.212 709.27Z" fill="#A3D048"/>
<path d="M532.213 709.27C533.857 709.166 539.068 709.411 540.489 709.919C538.801 710.905 539.248 710.231 538.742 712.123C537.556 716.568 537.234 721.436 536.215 725.9L534.709 725.979L531.697 725.079C532.705 722.875 534.625 712.797 534.077 710.066L532.213 709.27Z" fill="#BCE28F"/>
<path d="M540.489 709.918C550.853 711.596 572.835 714.584 582.058 717.07C572.585 717.939 539.903 726.242 536.215 725.899C537.234 721.435 537.556 716.568 538.742 712.122C539.248 710.23 538.801 710.904 540.489 709.918Z" fill="#A3D048"/>
<path d="M649.539 604.735C652.827 611.672 652.797 617.234 656.44 623.994L655.699 624.147C653.972 622.94 653.691 621.581 652.674 619.714C643.863 615.678 651.744 612.801 648.737 605.854L649.539 604.735Z" fill="#B5EEFA"/>
<path d="M603.176 516.571C603.645 515.146 603.515 504.211 603.553 502.028C603.874 483.998 605.838 466.485 604.697 448.387L605.626 447.576C610.504 448.331 610.975 456.36 610.849 460.422C610.555 469.928 614.441 480.136 615.219 489.03L615.525 486.067C616.259 487.45 618.28 504.462 618.745 507.55C624.985 549.806 630.893 592.111 636.459 634.458C640.047 660.953 643.801 687.417 647.205 713.929C647.536 716.532 648.075 720.732 646.642 722.912C642.08 722.489 602.436 715.154 599.853 713.58C599.245 710.874 599.133 708.755 599.176 706.012C599.907 659.685 600.759 612.973 601.873 566.683C602.029 560.218 602.331 504.156 602.934 502.495C603.648 507.329 602.721 512.045 603.176 516.571Z" fill="#B5EEFA"/>
<path d="M615.219 489.03L615.525 486.066C616.259 487.45 618.28 504.462 618.745 507.55C624.985 549.805 630.893 592.11 636.459 634.458C640.047 660.952 643.801 687.416 647.205 713.929C647.536 716.531 648.075 720.732 646.642 722.911C642.08 722.489 602.436 715.153 599.853 713.58C599.245 710.873 599.133 708.755 599.176 706.012C599.907 659.685 600.759 612.972 601.873 566.682C602.029 560.218 602.331 504.155 602.934 502.495C603.648 507.328 602.721 512.045 603.176 516.57C602.752 524.675 603.035 535.353 602.892 543.724L601.917 612.464L601.576 679.474C601.524 688.561 600.742 697.831 601.075 706.887L603.79 705.099C608.766 705.167 632.516 703.856 635.302 705.234C636.159 705.657 636.863 706.067 637.776 706.379C639.141 706.845 640.188 707.083 641.297 708.081C642.497 709.159 643.182 710.457 644.897 710.518C642.197 692.094 640.77 675.788 638.474 657.799L624.06 550.412L618.562 510.581C617.741 504.663 616.633 494.331 615.219 489.03Z" fill="#F8FDFD"/>
<path d="M602.117 78.6401C602.701 78.6058 603.285 78.5765 603.868 78.5513C625.86 77.5888 650.934 79.3755 672.775 81.6833C749.148 89.7547 826.421 113.494 889.709 157.914C905.616 169.076 917.777 179.62 931.994 192.676C931.988 198.04 931.768 203.401 931.339 208.748C886.721 169.357 829.703 139.542 772.71 122.984C648.883 87.0305 515.886 101.267 402.478 162.615C279.812 231.552 188.985 345.747 149.423 480.781C146.708 490.476 144.323 500.26 142.269 510.115C121.497 612.329 131.003 722.152 182.614 814.91C182.769 815.131 182.922 815.357 183.076 815.578L182.624 816.037L180.043 813.214C171.601 803.895 158.863 794.416 148.265 787.92C143.164 784.791 137.854 782.225 132.798 778.925C114.655 731.741 103.808 688.83 100.799 637.985C91.2701 496.937 139.108 358.018 233.46 252.74C309.468 166.356 412.257 107.966 525.378 86.916C551.732 82.0635 575.55 80.2095 602.117 78.6401Z" fill="#529A14"/>
<path d="M225.309 859.529C231.333 849.126 241.244 841.87 252.929 839.225C289.194 831.026 329.447 847.466 360.156 866.301C390.91 885.166 416.322 903.505 452.839 910.228C491.799 917.404 531.751 920.784 570.152 930.758C593.68 936.955 616.7 946.005 634.414 963.033C661.233 987.635 655.735 1018.23 615.519 1010.49C593.567 1006.2 571.834 999.747 549.999 995.711C530.255 992.191 510.472 988.89 490.655 985.81C457.326 980.471 423.23 975.046 394.93 955.165C391.649 952.862 386.158 948.35 382.305 947.75C380.738 948.613 381.326 947.982 380.697 949.893C381.962 954.724 390.565 960.369 394.564 963.614C420.828 984.935 454.189 990.666 485.73 999.894C506.216 1005.97 526.39 1013.05 546.179 1021.12C546.492 1022.01 546.74 1022.78 547.019 1023.68L546.423 1024.57C539.263 1025.22 528.036 1024.56 520.923 1024.02L520.637 1021.95L519.816 1021.69L519.612 1023C515.217 1027.02 493.954 1011.52 486.929 1015.37C485.883 1015.94 483.92 1016.1 482.665 1016.09C477.67 1012.1 465.001 1013.27 458.187 1011.52C448.739 1009.1 440.136 1005.92 430.878 1002.99C424.271 1000.73 415.677 999.979 409.292 997.646C392.81 991.621 376.837 986.87 359.356 984.886C356.655 984.58 352.07 981.794 349.222 980.9C344.294 979.345 338.704 976.381 333.844 974.936L332.202 976.687C310.271 955.985 289.46 934.126 269.861 911.201C254.945 894.057 240.522 876.404 225.309 859.529Z" fill="#448E0E"/>
<path d="M813.226 671.245C812.069 643.758 802.676 542.179 837.247 534.449C844.362 536.106 856.302 541.42 859.339 548.205C870.097 572.247 875.681 600.636 880.861 626.504C886.396 654.162 874.322 687.514 871.107 714.718C869.387 729.328 880.016 748.708 860.955 758.278C857.141 760.194 846.713 766.495 843.958 761.119C846.254 754.084 852.567 744.642 848.036 736.823C842.966 741.942 847.895 753.245 838.539 753.073C837.259 739.823 838.918 730.008 845.997 718.956C847.485 717.449 849.787 713.88 851.079 712.006C849.897 689.926 848.103 664.448 848.134 642.491C851.82 635.786 855.304 633.815 861.384 629.375C855.187 631.721 852.567 632.731 847.38 636.784C843.339 627.783 839.586 618.097 835.875 608.907C834.479 605.502 831.307 597.138 829.477 594.436C829.924 599.606 832.63 605.675 833.444 610.368C835.196 616.413 841.888 633.907 842.243 638.425C844.074 661.436 845.519 688.751 846.48 711.528C845.017 713.58 843.535 715.723 842.017 717.725C835.281 727.987 834.4 734.312 834.504 746.485C834.479 747.544 834.479 748.603 834.516 749.663C834.651 753.6 835.575 754.016 838.447 756.649L839.133 757.268C838.055 769.005 838.202 781.098 836.953 792.316C806.142 799.682 757.255 794.698 726.652 787.313L737.643 645.375L740.833 598.782C741.562 588.199 742.009 577.923 743.919 567.465C747.195 549.577 755.614 545.26 769.685 536.048C769.379 546.762 771.749 556.564 768.877 565.911C776.837 555.857 784.625 549.879 794.085 541.451C775.698 574.949 772.722 629.112 772.747 666.91L782.482 668.33L782.991 642.399L784.442 643.532C784.368 656.948 784.429 670.363 784.631 683.773C789.677 684.085 793.54 684.311 798.567 684.146L798.127 674.637L799.462 673.467C804.899 673.602 808.064 672.91 813.226 671.245Z" fill="#024816"/>
<path d="M667.559 1030.25L668.073 1030.09C673.529 1028.56 681.189 1027.31 686.932 1026.08C707.279 1021.73 728.165 1018.12 748.965 1016.74C768.638 1015.45 788.428 1015.48 807.948 1011.83C919.89 990.917 1028.04 934.861 1100.7 845.789C1107.38 837.602 1123.66 817.421 1128.75 808.671C1126.76 816.533 1124.6 825.84 1121.94 833.377C1097.9 901.705 1054.66 965.831 1003.52 1016.79C997.824 1022.48 978.451 1041.68 972.432 1045.3C967.576 1046.31 965.764 1044.71 961.961 1044.98C955.054 1045.48 944.443 1046.3 937.855 1048.5C926.741 1052.51 915.224 1053.18 903.792 1055.75C902.262 1056.1 897.002 1054.58 894.05 1054.89C876.214 1056.76 858.8 1059.37 840.768 1058.54C836.065 1058.33 830.94 1061.76 827.046 1060.21C849.995 1046.88 890.664 1022.21 907.16 1001.42C873.734 1020.85 842.139 1039.76 806.552 1055.35C797.931 1059.13 785.324 1065.31 776.61 1068.18C775.925 1067.34 776.421 1063.84 776.335 1062.42C775.808 1061.92 766.758 1057.35 765.081 1056.4C761.891 1056.87 760.115 1055.77 756.986 1055.14C744.575 1052.61 729.641 1054.37 716.905 1053.89C706.183 1053.47 695.529 1052.2 684.838 1051.53C680.442 1051.25 675.458 1047.97 672.17 1047.67C663.671 1046.88 655.386 1047.95 646.765 1046.53C641.291 1045.75 636.233 1042.13 630.759 1041.86C626.89 1041.67 623.363 1041.25 622.512 1036.99C630.215 1036.75 662.281 1034.31 667.559 1030.25Z" fill="#3C870E"/>
<path d="M155.145 624.379C170.609 632.229 181.257 634.623 197.356 639.883C224.717 648.822 243.066 664.785 254.568 691.261C265.94 717.982 259.985 749.773 256.444 777.431C255.098 787.95 255.001 798.439 253.559 809.123C263.232 784.239 274.903 769.948 274.437 742.627C273.966 715.018 286.034 683.595 309.763 667.565C312.297 664.785 319.243 661.087 322.612 659.182C354.611 641.125 386.828 648.161 420.502 639.76C416.006 647.493 412.498 653.702 408.87 661.687C404.033 672.329 390.987 707.095 384.334 714.02C382.534 717.768 377.778 724.172 375.073 727.442C359.085 746.766 339.134 759.019 314.948 765.429C306.699 768.056 294.443 768.497 286.85 772.195C271.168 779.819 261.64 808.272 255.895 823.69C251.941 826.323 248.018 828.999 244.125 831.718C245.068 819.986 246.052 810.587 245.506 798.708C244.346 773.487 233.883 775.386 215.539 765.074C210.32 762.086 205.414 758.584 200.895 754.616C168.62 726.358 160.492 684.483 157.841 643.924C156.594 637.648 156.402 630.82 155.145 624.379ZM248.846 783.719C249.037 785.219 249.196 785.538 249.702 786.983L250.191 786.523C250.657 782.127 250.731 773.206 249.867 768.901C249.555 761.407 247.48 753.606 245.24 746.509C237.01 720.425 224.49 703.948 207.034 684.054C205.929 683.283 197.949 674.906 196.341 673.271C196.955 675.28 199.75 678.519 201.162 680.282C225.734 710.996 239.919 745.64 248.846 783.719ZM317.87 707.628L318.379 708.454C317.463 708.779 316.621 709.159 315.773 709.642L314.813 710.549L314.01 710.004C315.162 708.081 315.136 708.62 317.87 707.628ZM274.543 772.061L274.952 771.479C282.19 760.966 287.475 749.534 295.696 738.084C300.187 731.796 305.021 725.752 310.176 719.99C311.95 717.976 316.718 713.059 317.898 711.473C328.824 701.303 336.334 694.414 349.059 685.995C352.337 682.407 367.689 674.998 372.354 671.373C370.698 671.147 349.786 681.972 346.597 683.577C334.629 690.838 326.555 696.08 315.615 705.124C300.713 718.159 288.493 733.265 281.222 751.855C278.649 758.431 276.832 765.399 274.543 772.061Z" fill="#3C901A"/>
<path d="M196.342 673.271C197.95 674.906 205.93 683.283 207.034 684.054C224.491 703.948 237.01 720.425 245.241 746.509C247.481 753.606 249.555 761.407 249.868 768.901C249.467 773.028 250.514 781.711 248.847 783.719C239.92 745.64 225.735 710.996 201.163 680.282C199.75 678.519 196.955 675.28 196.342 673.271Z" fill="#091A01" fill-opacity="0.01"/>
<path d="M346.597 683.577C349.787 681.973 370.699 671.147 372.354 671.374C367.689 674.998 352.337 682.407 349.059 685.995C336.334 694.415 328.824 701.303 317.899 711.473L315.774 709.643C316.621 709.159 317.464 708.779 318.38 708.455L317.87 707.628L315.615 705.124C326.555 696.08 334.63 690.839 346.597 683.577Z" fill="#07763A" fill-opacity="0.0196078"/>
<path d="M249.869 768.901C250.732 773.206 250.659 782.127 250.193 786.524L249.703 786.983C249.198 785.538 249.038 785.219 248.848 783.719C250.514 781.711 249.468 773.028 249.869 768.901Z" fill="#032305" fill-opacity="0.0352941"/>
<path d="M309.764 667.566C312.298 664.786 319.244 661.087 322.613 659.183C354.612 641.126 386.829 648.162 420.503 639.761C416.007 647.494 412.499 653.703 408.87 661.687C404.034 672.329 390.987 707.096 384.335 714.021C379.59 716.048 381.786 719.654 376.46 721.442C369.674 719.501 341.135 704.243 336.609 698.481C337.444 693.888 346.148 691.17 349.06 685.996C352.338 682.408 367.69 674.999 372.355 671.374C370.699 671.147 349.787 681.973 346.598 683.577C340.874 682.647 328.722 695.885 325.906 694.421C319.724 691.2 301.762 686.29 298.044 681.404C297.849 677.209 307.724 672.562 309.764 667.566Z" fill="#77B214"/>
<path d="M155.145 624.379C170.609 632.229 181.257 634.623 197.356 639.883C224.717 648.822 243.066 664.785 254.568 691.261C254.044 693.251 254.365 693.82 254.898 695.798L255.082 696.466C251.513 698.835 232.889 694.029 228.843 691.953C221.316 688.095 214.687 686.681 207.034 684.054C205.929 683.283 197.949 674.906 196.341 673.271C195.246 671.943 195.654 671.888 194.053 671.716C184.653 670.559 175.413 666.083 166.029 664.252C156.448 662.385 162.326 650.512 157.841 643.924C156.594 637.648 156.402 630.82 155.145 624.379Z" fill="#77B214"/>
<path d="M332.203 976.687L333.846 974.936C338.706 976.381 344.296 979.344 349.223 980.899C352.072 981.793 356.656 984.579 359.357 984.885C376.839 986.869 392.811 991.621 409.293 997.646C415.679 999.979 424.272 1000.73 430.879 1002.99C440.138 1005.92 448.74 1009.1 458.188 1011.52C465.003 1013.27 477.671 1012.1 482.667 1016.09C483.921 1016.09 485.884 1015.94 486.93 1015.37C493.955 1011.51 515.218 1027.02 519.613 1023L519.818 1021.69L520.638 1021.95L520.925 1024.02C528.038 1024.56 539.264 1025.22 546.424 1024.57L547.02 1023.67C546.741 1022.77 546.493 1022.01 546.18 1021.12C578.441 1032.35 601.273 1038.68 636.822 1035C646.987 1033.95 658.345 1031.19 667.56 1030.25C662.282 1034.3 630.215 1036.75 622.513 1036.99C623.364 1041.25 626.891 1041.66 630.76 1041.86C636.234 1042.13 641.292 1045.75 646.766 1046.53C655.387 1047.95 663.672 1046.88 672.171 1047.67C675.459 1047.97 680.443 1051.25 684.839 1051.53C695.53 1052.2 706.184 1053.47 716.906 1053.89C729.641 1054.37 744.576 1052.61 756.987 1055.14C760.116 1055.77 761.892 1056.87 765.082 1056.4C766.759 1057.35 775.809 1061.92 776.336 1062.42C776.422 1063.84 775.926 1067.34 776.611 1068.18C772.484 1070.52 756.24 1076.55 751.666 1078.27C716.189 1091.65 674.461 1104.07 636.185 1105.47C549.761 1108.61 456.809 1069.82 387.282 1021.29C367.994 1007.61 349.597 992.711 332.203 976.687Z" fill="#18721D"/>
<path d="M842.232 765.693C847.234 768.639 849.316 767.953 854.618 765.895C854.802 778.717 856.002 792.696 856.872 805.567L859.584 849.836C858.035 850.791 855.825 851.845 854.153 852.702C853.351 845.25 851.092 800.956 849.414 796.358C848.532 806.381 849.634 824.915 850.051 835.263L852.151 889.544C852.61 902.617 853.253 919.076 852.512 932.02C849.573 933.183 846.548 934.102 843.462 934.763C835.655 936.477 820.225 938.124 813.355 933.397C807.244 929.197 783.977 828.51 781.148 815.725C779.789 809.932 779.036 805.677 776.648 800.209C777.719 814.402 779.764 828.497 782.764 842.409C784.754 851.183 788.318 862.891 789.432 871.371C789.984 875.565 787.853 889.642 787.204 894.724L782.318 932.571C769.049 936.355 757.489 935.743 744.306 932.161C735.868 886.758 732.249 840.584 733.492 794.417C750.092 797.282 765.516 800.074 783.609 800.54C795.458 800.846 829.52 802.168 839.984 795.617C842.789 793.865 842.189 771.235 842.232 765.693ZM796.333 820.066C795.574 818.266 794.423 814.861 793.057 813.71C793.125 816.576 794.11 818.658 795.078 821.37C801.764 838.882 813.074 861.109 832.986 866.858C834.584 867.318 836.072 867.115 837.449 866.234L837.309 865.279C818.033 858.715 804.832 837.321 796.333 820.066ZM767.763 841.411C769.275 836.708 769.759 832.802 770.525 827.916C770.941 825.405 770.959 825.467 770.623 822.962L770.096 823.079L769.447 825.558C768.939 827.346 766.893 834.143 766.722 835.588C761.548 849.334 759.411 854.092 750.943 866.473C760.03 859.578 765.148 852.886 767.763 841.411ZM832.435 896.42C827.175 891.663 818.841 887.358 814.078 881.211C813.337 880.249 812.535 879.729 811.537 879.068C816.98 888.24 821.058 894.73 832.435 896.42ZM760.415 897.363C765.895 894.443 776.28 883.648 774.951 877.274C773.096 880.366 771.192 883.164 769.135 886.048C767.702 888.05 760.495 895.741 760.415 897.363Z" fill="#024816"/>
<path d="M811.537 879.067C812.535 879.729 813.337 880.249 814.078 881.21C818.842 887.358 827.175 891.662 832.435 896.42C821.058 894.73 816.98 888.24 811.537 879.067Z" fill="#091A01" fill-opacity="0.0235294"/>
<path d="M774.952 877.273C776.281 883.648 765.896 894.442 760.416 897.363C760.496 895.741 767.702 888.05 769.135 886.048C771.193 883.164 773.097 880.366 774.952 877.273Z" fill="#000100" fill-opacity="0.0235294"/>
<path d="M795.077 821.37C794.11 818.657 793.124 816.576 793.057 813.71C794.422 814.861 795.573 818.266 796.333 820.066L795.077 821.37Z" fill="#091A01" fill-opacity="0.141176"/>
<path d="M769.447 825.558L770.096 823.078L770.623 822.962C770.96 825.466 770.941 825.405 770.525 827.915L769.447 825.558Z" fill="#032305" fill-opacity="0.14902"/>
<path d="M299.813 561.122C319.571 559.238 339.284 565.147 354.749 577.587C372.428 592.025 380.568 611.144 382.932 633.374C377.517 633.601 372.111 633.993 366.721 634.556C338.952 637.715 305.142 649.404 287.186 671.913C279.253 679.842 274.376 689.057 270.104 699.264C264.077 674.723 249.992 657.591 230.395 642.657C229.082 599.886 256.349 565.165 299.813 561.122Z" fill="#FAA502"/>
<path d="M626.069 175.158C628.463 169.334 631.696 164.624 637.777 162.1C642.73 160.047 648.308 160.113 653.213 162.282C659.997 165.339 662.25 169.996 664.724 176.331C672.623 176.61 685.285 178.342 693.166 179.575C737.448 186.355 779.923 201.926 818.088 225.371C826.066 230.272 837.308 237.681 844.258 243.865C849.242 241.196 853.645 239.527 859.419 240.498C864.078 241.266 868.199 243.956 870.777 247.912C874.377 253.458 873.985 258.271 872.846 264.275C920.367 305.356 960.522 362.586 977.789 423.366C984.751 425.083 985.615 425.954 990.244 431.187C992.203 442.209 988.48 453.359 975.107 450.37C971.281 449.491 967.956 447.124 965.874 443.792C961.006 435.88 965.751 429.059 972.591 424.629C955.955 376.49 929.191 332.479 894.1 295.565C887.634 288.706 875.559 276.703 868.346 271.142C867.232 271.928 866.093 272.711 864.887 273.352C860.355 275.722 855.053 276.148 850.197 274.531C838.735 270.709 836.463 260.189 839.972 249.75C830.579 243.336 822.717 237.567 812.816 231.608C767.75 204.242 716.843 187.929 664.265 184.002C663.622 186.759 662.765 189.151 661.093 191.489C658.154 195.545 653.727 198.268 648.78 199.059C637.55 200.937 627.808 194.08 626.112 182.763C556.314 181.353 487.654 200.6 428.757 238.087C413.837 247.707 401.703 257.452 388.035 268.62C389.788 274.32 390.774 278.735 388.469 284.626C386.723 289.069 383.188 292.571 378.729 294.277C372.737 296.568 367.92 295.357 362.354 292.931C317.288 340.468 287.043 387.668 267.554 450.744C269.299 451.908 269.845 452.295 271.403 453.674C284.798 467.206 265.106 485.78 252.779 473.359C247.776 470.066 246.946 461.329 250.592 456.639C254.613 451.467 256.703 450.656 262.71 449.375C264.192 442.581 267.473 433.036 269.759 426.335C286.108 378.427 320.054 322.531 356.881 287.533C356.19 285.93 355.286 283.872 354.843 282.185C353.559 277.278 354.368 272.058 357.077 267.769C359.663 263.71 363.82 260.907 368.553 260.033C374.125 258.982 378.33 260.371 382.815 263.481C392.306 253.805 411.521 239.753 422.994 232.278C487.208 190.431 550.634 176.173 626.069 175.158ZM648.1 189.498C653.237 187.967 656.219 182.612 654.811 177.437C653.396 172.262 648.112 169.158 642.908 170.447C639.43 171.308 636.693 173.985 635.75 177.443C634.813 180.9 635.817 184.596 638.383 187.099C640.948 189.602 644.665 190.52 648.1 189.498ZM373.194 286.625C378.094 285.97 381.582 281.531 381.057 276.614C380.533 271.698 376.188 268.094 371.259 268.487C367.952 268.752 365.05 270.79 363.679 273.81C362.307 276.831 362.684 280.358 364.661 283.021C366.639 285.683 369.905 287.064 373.194 286.625ZM857.508 266.739C862.217 265.992 865.505 261.677 864.978 256.939C864.458 252.201 860.3 248.713 855.543 249.016C852.261 249.226 849.358 251.222 847.993 254.213C846.628 257.204 847.013 260.704 849.003 263.323C850.993 265.942 854.263 267.254 857.508 266.739Z" fill="#08A1CA"/>
<path d="M271.404 453.674C284.799 467.206 265.106 485.78 252.779 473.359L253.72 473.132C255.833 474.488 261.5 476.872 263.806 476.069C262.141 472.15 262.79 470.746 265.422 467.285C268.227 465.407 271.074 466.795 272.608 469.573C278.237 458.11 271.958 461.011 271.404 453.674Z" fill="#4FCADA"/>
<path d="M119.67 797.307C160.113 802.309 196.282 850.62 221.143 880.458C234.98 897.198 249.021 913.767 263.259 930.164C272.504 940.806 282.108 951.13 292.054 961.117C297.811 966.903 306.405 974.826 311.67 980.661C307.801 979.847 304.538 975.426 301.693 972.383C301.417 972.922 301.142 973.461 300.867 973.993C297.86 974.036 293.522 971.691 290.925 971.477C283.316 970.209 272.889 971.183 265.603 969.462C252.95 966.468 239.447 962.115 226.573 959.396C222.311 958.502 207.392 953.64 204.26 954.638L203.262 956.971C170.633 914.306 131.132 850.485 119.67 797.307Z" fill="#408C10"/>
<path d="M516.327 325.441C517.788 325.778 518.077 325.959 519.482 326.531C521.051 328.081 521.139 328.933 521.816 331.026L522.051 331.775C524.185 332.193 532.784 331.45 535.647 331.362C540.556 331.232 545.47 331.379 550.362 331.802C553.595 332.052 559.838 332.074 561.884 334.47L561.679 335.44C553.106 339.797 531.235 338.626 521.734 337.473L521.75 345.91C530.832 348.203 530.34 351.537 530.485 360.086L571.358 360.174C572.557 357.887 576.45 350.586 579.587 349.945C592.074 347.394 616.212 347.505 628.942 349.769C632.365 350.378 636.106 357.524 637.104 360.101L677.902 360.117C677.932 358.835 677.975 357.554 678.03 356.273C678.239 351.864 678.735 349.558 682.745 347.328C687.307 344.795 686.541 342.282 686.407 337.577C671.901 339.452 658.51 339.261 644.482 334.933C658.878 329.531 671.142 331.632 685.948 331.986C686.652 329.371 686.688 329.121 688.078 326.849C690.307 325.487 689.119 325.812 691.764 325.88C694.232 327.559 694.214 328.755 695.028 331.853C697.349 332.537 708.407 331.282 711.677 331.267C722.735 331.22 731.068 331.666 741.692 334.59L740.853 334.885C727.321 339.713 708.964 339.229 694.912 337.424C694.826 340.742 694.207 343.44 696.161 345.876C697.44 346.456 700.931 347.835 701.629 348.91C705.486 354.375 706.435 369.685 700.735 374.315C693.571 380.136 685.023 378.117 679.133 372.086C666.397 375.591 652.54 380.314 639.994 384.545L639.602 384.891C639.682 386 646.074 393.331 647.14 394.524C660.176 409.105 660.206 430.724 660.837 449.363L652.834 449.396C651.34 425.181 652.105 412.497 634.961 394.482C634.924 391.925 635.298 390.162 633.81 388.467C630.785 389.931 627.883 398.911 624.668 400.482C618.796 403.35 591.157 402.289 585.154 401.503C579.359 397.234 578.622 391.058 574.447 388.082C572.818 390.1 574.798 393.992 572.888 395.795C556.353 411.406 558.115 427.089 555.943 449.384L547.857 449.383C548.791 420.236 549.118 406.185 570.113 385.14C556.686 380.57 543.194 376.198 529.638 372.026C524.938 377.002 520.003 378.667 513.085 377.256C501.685 374.93 503.083 359.648 505.237 351.183C505.946 348.392 510.23 346.846 512.639 345.72C513.507 343.829 513.204 339.94 513.186 337.674C505.827 338.321 473.304 340.023 469 334.862C471.259 330.527 506.411 331.128 512.273 332.084C512.667 331.778 513.06 331.471 513.453 331.165C514.063 328.081 514.15 327.679 516.327 325.441Z" fill="#024816"/>
<path d="M478.339 817.359C484.191 817.659 558.581 850.834 569.353 855.457C554.605 869.956 538.306 884.817 523.248 899.249C516.266 898.373 509.687 897.02 502.804 895.643C463.128 888.491 442.962 880.072 408.346 861.494C431.4 846.346 454.735 831.632 478.339 817.359Z" fill="#07763A"/>
<path d="M603.737 238.484C660.402 236.029 715.766 246.562 765.565 274.425C802.083 294.857 838.576 326.47 860.852 362.165C891.283 357.753 891.62 394.544 868.891 396.061C863.705 396.43 858.599 394.581 854.851 390.974C847.081 383.585 848.508 373.47 855.604 366.208C843.738 349.574 830.218 334.179 815.254 320.259C760.171 269.821 687.441 243.098 612.801 245.872C599.319 246.325 585.879 247.65 572.566 249.839C505.446 261.398 444.376 295.777 399.677 347.164C389.658 358.489 382.185 368.964 373.434 381.221C380.446 389.483 382.746 400.221 373.045 407.928C360.589 417.826 341.708 407.367 345.413 390.591C346.393 386.008 349.217 382.03 353.22 379.593C358.29 376.553 362.901 376.814 368.406 378.046C373.543 367.893 386.165 351.546 393.539 342.739C436.192 292.442 494.431 257.842 559.002 244.439C574.414 241.216 588.06 239.876 603.737 238.484ZM868.555 387.656C873.38 387.022 876.772 382.588 876.123 377.763C875.468 372.939 871.022 369.562 866.197 370.23C861.403 370.895 858.048 375.315 858.697 380.115C859.34 384.916 863.748 388.287 868.555 387.656ZM364.611 402.711C369.164 401.349 371.776 396.58 370.474 392.01C369.172 387.439 364.439 384.764 359.851 386.005C356.829 386.823 354.481 389.203 353.705 392.237C352.929 395.27 353.845 398.485 356.103 400.654C358.362 402.823 361.612 403.609 364.611 402.711Z" fill="#039EC8"/>
<path d="M390.024 781.852C393.81 782.256 404.733 786.842 408.626 788.397L446.203 803.852C452.598 806.503 461.057 810.336 467.513 812.203C462.078 815.7 455.993 819.172 450.365 822.392C432.365 832.691 415.042 844.325 397.141 854.746C390.752 851.513 383.31 846.756 376.898 843.211C358.126 832.814 338.273 820.623 319.074 811.31C342.515 800.992 366.17 791.171 390.024 781.852Z" fill="#529A14"/>
<path d="M580.751 860.612C586.648 862.272 603.306 870.121 610.024 873.134C631.157 882.514 652.134 892.238 672.953 902.304C667.356 917.624 657.774 935.767 651.528 952.427C648.191 948.76 645.534 945.723 641.78 942.49C616.296 918.365 572.469 907.65 538.477 902.745L580.751 860.612Z" fill="#529A14"/>
<path d="M638.456 807.985C642.473 808.543 653.941 813.288 658.392 814.996C674.925 821.266 691.347 827.83 707.64 834.688C704.97 840.358 700.874 847.161 697.825 852.861C691.279 865.064 684.991 877.408 678.966 889.881L665.728 883.93C641.45 873.079 615.39 861.384 590.76 851.624C603.652 838.35 624.256 820.568 638.456 807.985Z" fill="#6FB658"/>
<path d="M521.052 793.682C523.47 791.771 548.134 778.656 551.712 776.966C565.185 781.442 578.484 786.279 591.998 790.743L592.701 791.379L595.994 792.035L597.145 792.69C606.549 796.106 619.603 800.337 628.476 804.14C617.687 812.902 602.281 827.407 592.019 834.988C587.693 839.158 583.461 842.77 578.912 846.664C557.625 836.953 535.149 828.987 514.012 819.643L512.388 818.994C507.373 817.525 496.214 812.841 490.514 810.771C498.032 806.026 507.5 800.778 515.384 796.707C516.051 796.204 520.071 794.196 521.052 793.682Z" fill="#04A3CA"/>
<path d="M592.701 791.379L595.994 792.034L597.145 792.689C606.549 796.106 619.604 800.337 628.476 804.139C617.687 812.901 602.281 827.407 592.019 834.987L591.336 832.746C592.394 822.062 592.349 802.682 592.701 791.379Z" fill="#0DAED3"/>
<path d="M592.701 791.379L595.994 792.034L597.145 792.689C596.78 800.894 596.367 823.402 595.298 830.003C593.582 831.46 593.212 831.65 591.336 832.746C592.394 822.062 592.349 802.682 592.701 791.379Z" fill="#4FCADA"/>
<path d="M490.514 810.771C498.032 806.025 507.5 800.778 515.384 796.706C516.974 801.182 511.716 812.455 512.388 818.994C507.373 817.524 496.214 812.84 490.514 810.771Z" fill="#029BC2"/>
<path d="M521.052 793.682C522.348 796.884 516.943 814.286 515.66 818.394C515.019 818.939 514.745 819.282 514.012 819.643L512.388 818.994C511.716 812.455 516.975 801.182 515.384 796.706C516.051 796.204 520.071 794.196 521.052 793.682Z" fill="#0DAED3"/>
<path d="M1086.21 344.039C1088.53 345.3 1096.09 360.528 1097.9 364.061C1119.83 406.539 1135.19 452.099 1143.45 499.184C1145.14 508.848 1146.11 518.327 1147.38 528.031C1141.6 527.181 1134.91 526.571 1129.01 525.87C1126.47 525.727 1123.73 525.344 1121.19 525.053C1119.76 516.219 1118.69 507.308 1116.97 498.536C1107.4 449.153 1090.1 401.59 1065.7 357.602C1072.47 352.978 1079.3 348.456 1086.21 344.039Z" fill="#529A14"/>
<path d="M661.167 597.87C658.203 591.878 642.24 559.62 642.289 555.505C642.92 554.155 643.33 553.092 644.867 552.695C648.645 551.771 673.884 551.523 675.703 552.978C680.938 557.169 704.94 607.303 703.648 611.035C700.238 613.603 694.953 612.856 690.569 612.77C688.99 608.89 688.206 606.27 685.279 603.275L684.648 602.877C681.036 600.568 680.179 598.912 676.064 597.032L675.231 597.058C677.319 600.034 679.781 603.164 683.363 604.454C686.308 607.728 686.743 609.499 687.796 613.793C690.912 614.613 723.646 625.904 724.663 626.707C727.577 629.009 729.61 633.944 731.79 637.116C729.996 630.809 728.643 626.682 723.971 621.918C728.71 609.665 733.933 597.654 738.648 585.391C737.466 593.153 737.092 604.551 736.578 612.587C735.635 628.629 734.466 644.659 733.069 660.671C730.884 661.883 728.618 662.563 726.255 663.39C708.32 660.102 697.109 646.257 686.963 631.911C678.225 633.668 664.883 634.097 663.383 622.016C663.242 620.896 660.242 618.887 659.164 617.546C656.525 614.252 659.256 611.191 658.307 608.458C656.691 607.004 655.931 606.527 654.952 604.556C654.841 599.782 657.242 599.324 661.167 597.87Z" fill="#024816"/>
<path d="M402.816 776.586C409.012 774.994 415.795 771.761 421.937 769.698C437.691 764.401 457.299 755.847 473.175 751.91C490.021 756.925 506.778 762.246 523.437 767.855L527.542 769.159C531.898 770.518 536.808 772.177 541.164 773.347C535.009 776.531 529.158 779.562 522.788 782.348L520.674 783.658C507.183 791.202 492.375 798.684 478.612 806.148C456.437 796.915 425.014 783.762 402.816 776.586Z" fill="#77B214"/>
<path d="M527.541 769.159C531.897 770.518 536.806 772.178 541.163 773.347C535.008 776.531 529.157 779.562 522.787 782.348C526.16 778.031 526.32 774.615 527.541 769.159Z" fill="#A3D048"/>
<path d="M520.674 783.658C520.767 779.825 521.659 771.069 523.437 767.854L527.542 769.159C526.321 774.614 526.161 778.031 522.788 782.348L520.674 783.658Z" fill="#A3D048"/>
<path d="M753.104 461.925C757.213 461.611 760.035 461.766 764.144 461.955C781.588 474.803 789.163 483.359 812.179 489.566C811.304 491.967 810.587 494.409 809.001 496.38C808.083 497.513 805.505 500.066 805.395 501.117C804.789 506.823 809.393 516.481 812.185 521.041C803.748 526.004 801.507 530.795 794.839 537.478C793.749 538.573 789.322 541.498 787.816 542.492C781.625 547.487 778.374 550.468 773.384 556.628C773.359 553.209 772.79 546.06 772.998 543.101C773.83 531.353 774.62 529.995 772.312 518.346C755.761 520.673 756.276 520.735 751.702 505.478C752.339 503.98 752.198 504.505 752.4 502.841L750.557 502.469L749.896 501.457C750.814 492.11 748.163 498.023 743.387 494.369C742.358 490.773 748.279 480.558 750.098 476.847L747.165 472.077C747.189 469.211 746.914 465.901 748.04 463.395C750.098 461.666 749.822 462.224 753.104 461.925Z" fill="#024816"/>
<path d="M647.97 734.57L649.152 735.219C649.832 738.513 652.201 751.983 651.044 754.347L650.401 754.745C652.379 755.363 654.626 755.908 656.292 757.06C658.318 759.754 666.995 760.911 670.65 761.603C672.377 762.258 673.779 762.827 675.585 763.274C674.587 766.085 674.532 766.483 672.812 768.846L672.726 769.728C667.576 772.741 663.713 776.555 659.163 779.525L655.93 781.931C649.575 787.473 642.986 792.022 636.618 797.27C625.517 793.192 613.418 788.605 602.165 785.213L597.395 783.37L594.167 782.433L593.278 781.993L562.254 772.012C572.803 766.801 583.407 761.701 594.063 756.71L594.641 756.349L598.197 755.308C599.627 754.341 607.122 751.163 609.144 750.263C613.418 751.463 617.882 752.559 622.199 753.68C622.358 750.306 617.172 751.959 615.286 747.893C616.155 746.013 616.253 746.442 618.463 745.156C619.449 745.518 619.933 745.273 621.164 745.15L625.989 743.123C633.11 740.497 640.133 737.619 647.046 734.496L647.97 734.57Z" fill="#4FCADA"/>
<path d="M647.972 734.57L649.154 735.219C649.833 738.513 652.203 751.983 651.046 754.347L650.403 754.745C652.381 755.363 654.628 755.908 656.293 757.06C658.32 759.754 666.996 760.911 670.652 761.603C672.378 762.258 673.781 762.827 675.587 763.274C674.589 766.085 674.534 766.483 672.813 768.846L672.727 769.728C667.578 772.741 663.714 776.555 659.165 779.525C658.834 774.467 658.032 768.822 657.42 763.74C656.361 763.544 653.85 762.791 652.699 762.478C644.023 760.072 630.448 756.704 622.2 753.68C622.359 750.306 617.173 751.959 615.287 747.893C616.157 746.013 616.255 746.442 618.465 745.156C619.451 745.518 619.934 745.273 621.165 745.15L625.99 743.123C633.111 740.497 640.134 737.619 647.047 734.496L647.972 734.57Z" fill="#F8FDFD"/>
<path d="M647.972 734.57L649.154 735.219C649.833 738.513 652.203 751.983 651.046 754.347L650.403 754.745C644.959 753.055 620.81 748.046 618.465 745.156C619.451 745.518 619.934 745.273 621.165 745.15L625.99 743.123C633.111 740.497 640.134 737.619 647.047 734.496L647.972 734.57Z" fill="#94E5F6"/>
<path d="M657.42 763.74C663.916 765.589 666.537 765.473 672.813 768.847L672.728 769.729C667.578 772.741 663.714 776.556 659.165 779.525C658.834 774.468 658.032 768.822 657.42 763.74Z" fill="#94E5F6"/>
<path d="M562.254 772.012C572.803 766.802 583.407 761.701 594.063 756.711C593.701 765.148 593.281 773.543 593.278 781.993L562.254 772.012Z" fill="#4FCADA"/>
<path d="M594.642 756.349L598.198 755.309C598.476 764.854 597.954 773.861 597.396 783.37L594.168 782.434L593.279 781.993C593.282 773.543 593.702 765.148 594.064 756.711L594.642 756.349Z" fill="#94E5F6"/>
<path d="M652.699 762.479C653.85 762.791 656.361 763.544 657.42 763.74C658.032 768.822 658.835 774.467 659.165 779.525L655.932 781.931C654.995 779.929 653.073 765.179 652.699 762.479Z" fill="#94E5F6"/>
<path d="M685.42 908.599C691.972 911.66 714.131 922.284 719.562 926.166C722.991 927.77 727.296 929.833 730.333 932.093C730.884 938.626 731.533 945.153 732.274 951.668C729.696 952.562 726.8 953.646 724.222 954.442C706.392 961.808 684.055 968.384 665.429 973.852L662.281 967.049C668.294 949.696 677.809 925.308 685.42 908.599Z" fill="#78B54D"/>
<path d="M719.562 926.166C722.991 927.77 727.296 929.834 730.333 932.093C730.884 938.626 731.533 945.154 732.274 951.669C729.696 952.562 726.8 953.646 724.222 954.442L723.555 953.989C724.62 948.766 722.881 930.783 719.385 927.097L719.562 926.166Z" fill="#AED97A"/>
<path d="M678.978 774.835L679.517 774.474C683.117 772.086 683.258 772.221 687.501 773.072C697.653 776.556 706.96 779.666 717.235 782.807C717.37 785.703 717.511 787.957 717.339 790.877L724.411 793.639C724.087 813.239 721.919 809.136 713.586 825.846C702.754 821.003 691.61 817.029 680.558 812.798C677.215 811.518 666.806 808.071 664.362 806.779L658.974 804.912C654.884 803.607 650.91 802.138 646.875 800.68C649.937 798.629 654.664 794.496 657.652 792.016L661.583 788.753L678.978 774.835Z" fill="#B0DBA0"/>
<path d="M661.583 788.753L664.362 806.779L658.974 804.912C654.884 803.607 650.91 802.138 646.875 800.681C649.937 798.629 654.664 794.496 657.652 792.016L661.583 788.753Z" fill="#AED97A"/>
<path d="M646.875 800.68C649.937 798.629 654.664 794.495 657.652 792.016C658.013 796.479 658.356 800.478 658.974 804.911C654.884 803.607 650.91 802.137 646.875 800.68Z" fill="#85C67A"/>
<path d="M1045.7 269.271C1048.87 271.47 1079.85 315.745 1080.8 319.646C1078.54 323.605 1060.13 336.069 1055.52 338.76C1051.63 335.655 1023.49 294.689 1019.27 288.288C1027.18 282.107 1037.25 274.609 1045.7 269.271ZM1033.51 298.877C1036.68 296.423 1049.38 287.873 1050.41 285.303C1049.54 283.554 1050.18 284.177 1048.46 283.334C1044.99 285.906 1033.23 293.489 1031.74 296.44C1032.38 298.263 1031.91 297.423 1033.51 298.877Z" fill="#029BC2"/>
<path d="M407.635 733.731C411.897 733.694 419.624 736.394 423.939 737.466C436.29 740.534 450.616 745.867 462.95 748.059C448.411 751.549 420.687 761.468 406.114 766.869L391.349 772.061C380.967 768.828 366.539 762.381 356.531 759.999C365.908 754.053 371.159 748.463 379.376 742.119C383.978 738.568 401.292 734.864 407.635 733.731Z" fill="#77B214"/>
<path d="M979.895 181.631C985.7 183.5 1003.21 212.536 1008.63 218.628C1010.66 220.907 1015.83 228.719 1017.48 231.603C1013.65 235.093 996.391 247.472 991.872 250.441C989.423 249.21 958.397 205.525 954.705 199.788C961.563 194.383 972.591 186.14 979.895 181.631ZM968.647 210.606C972.321 207.708 983.863 200.069 985.504 197.088C984.971 195.416 985.296 195.967 984.169 194.622C980.985 196.88 968.984 205.167 967.172 207.527C967.68 208.687 968.023 209.507 968.647 210.606Z" fill="#029BC2"/>
<path d="M751.384 937.824C761.725 939.441 766.599 939.526 776.929 938.063C776.758 949.299 776.555 954.393 780.217 964.992C784.754 978.138 777.082 981.922 765.356 980.324C759.374 979.51 750.71 979.522 744.716 980.208C738.115 980.814 714.676 983.618 712.404 974.985C714.198 967.57 743.136 963.223 749.051 954.565C753.165 948.533 751.671 944.211 751.384 937.824Z" fill="#024816"/>
<path d="M591.784 404.83C596.971 404.937 612.647 404.207 616.376 405.497C616.706 406.674 616.872 407.844 617.019 409.057C620.723 411.469 628.401 407.345 628.989 418.831C629.344 425.663 630.851 435.404 626.362 441.32C624.195 444.172 620.76 444.081 617.453 444.33C606.785 444.549 579.366 448.951 579.604 434.012C579.706 427.663 578.205 417.493 582.201 412.291C584.314 409.54 587.569 410.361 590.645 409.347C592.105 407.571 591.616 407.699 591.784 404.83ZM607.726 438.546C614.006 436.743 617.68 430.234 615.978 423.926C614.276 417.617 607.822 413.842 601.488 415.448C597.301 416.508 594.011 419.743 592.879 423.912C591.748 428.08 592.951 432.534 596.027 435.566C599.103 438.598 603.574 439.737 607.726 438.546Z" fill="#024816"/>
<path d="M601.869 420.993C605.196 419.549 609.064 421.073 610.513 424.399C611.961 427.724 610.442 431.594 607.118 433.047C603.789 434.502 599.91 432.98 598.458 429.648C597.008 426.317 598.535 422.439 601.869 420.993Z" fill="#024816"/>
<path d="M844.173 938.896L844.601 938.835C845.581 940.145 844.259 956.714 846.512 961.741C857.386 985.988 848.594 984.427 827.635 986.717C816.797 987.899 809.014 988.621 798.293 987.525C794.472 986.76 791.209 986.24 790.584 981.966C793.217 974.257 811.194 971.41 817.329 962.556C821.573 956.426 819.705 946.507 819.13 939.49C829.141 940.862 834.205 940.598 844.173 938.896Z" fill="#024816"/>
<path d="M1022.03 235.678C1028.03 236.752 1029.03 239.523 1033.37 245.698C1042.19 258.234 1048.93 261.233 1032.29 272.058C1027.18 275.384 1017.55 283.154 1011.32 286.599C1008.46 286.124 1005.3 285.051 1003.95 282.689C1001.2 277.861 989.374 266.268 990.764 261.08C992.337 255.234 1017.22 238.27 1022.03 235.678Z" fill="#029BC2"/>
<path d="M547.377 733.186C550.715 734.986 551.603 735.109 553.907 732.347C553.881 730.951 553.694 731.576 554.426 730.449L556.21 731.129C557.028 733.639 557.261 732.666 556.442 734.435L554.909 735.476L555.371 736.205L556.169 736.358C563.496 737.809 570.971 740.332 578.493 742.003C582.522 743.063 590.718 744.979 594.307 746.369L597.008 747.306C595.822 748.022 594.604 748.8 593.615 749.78C579.456 756.093 565.699 761.456 551.58 768.473C543.751 766.202 536.13 763.569 528.409 760.96L525.268 759.846C525.953 754.629 530.422 737.221 528.916 733.976C528.804 733.529 527.913 732.237 527.622 731.772C530.565 732.513 531.97 732.935 534.965 732.292C536.427 729.855 545.324 732.219 547.377 733.186Z" fill="#A3D048"/>
<path d="M527.622 731.771C530.565 732.512 531.97 732.935 534.965 732.292C533.138 742.034 530.23 751.518 528.409 760.96L525.268 759.846C525.953 754.629 530.422 737.221 528.916 733.976C528.804 733.529 527.913 732.237 527.622 731.771Z" fill="#AED97A"/>
<path d="M754.336 426.165C761.518 425.226 766.827 430.378 773.335 433.741C787.822 441.228 807.337 443.845 820.979 452.173C829.557 457.411 826.881 468.366 821.303 475.492C806.571 468.98 748.562 447.074 750.086 430.154C751.133 427.91 752.143 427.581 754.336 426.165Z" fill="#024816"/>
<path d="M718.533 839.237C722.568 840.933 723.174 840.86 723.425 845.489C723.829 853.118 724.05 860.741 724.527 868.371C725.556 884.021 726.781 899.66 728.213 915.279C723.303 911.881 716.169 908.887 710.597 906.125L690.648 896.09C699.692 877.182 708.424 857.557 718.533 839.237Z" fill="#AAD386"/>
<path d="M346.08 765.926C350.273 765.798 373.718 774.921 378.962 776.813C360.694 782.826 337.34 792.776 319.163 800.056L307.724 804.471C302.3 802.04 295.563 798.268 290.191 795.458C310.459 779.489 324.814 777.039 346.08 765.926Z" fill="#77B214"/>
<path d="M471.968 719.22C478.634 717.56 480.487 718.381 487.086 720.952L496.111 722.961C500.496 723.818 524.02 727.97 525.548 730.315C519.406 730.155 481.998 741.991 473.416 744.483C464.814 742.053 456.196 739.671 447.563 737.356C443.779 736.334 434.632 734.074 431.597 732.635C430.799 731.833 430.04 731.086 429.215 730.309L431.84 728.061C442.292 725.073 460.287 722.434 472.087 719.844L471.968 719.22Z" fill="#A3D048"/>
<path d="M933.079 901.87C933.612 901.944 934.133 902.023 934.659 902.109C937.494 902.593 938.492 902.862 940.176 905.256C940.794 907.754 940.574 909.695 939.019 912.273C924.679 936.086 905.422 959.757 884.413 977.949C882.032 980.012 870.257 983.809 867.177 984.874L860.344 987.519C883.734 967.479 904.136 944.193 920.925 918.366C923.864 913.871 929.057 904.583 933.079 901.87Z" fill="#015C6C"/>
<path d="M948.313 923.49C953.542 923.472 972.346 923.013 976.057 924.256C976.381 925.309 976.865 926.926 976.032 927.819C964.019 940.739 935.216 956.237 920.919 963.333L899.176 973.277C910.356 963.67 919.829 954.7 929.993 943.948C934.916 938.743 943.409 927.532 948.313 923.49Z" fill="#015C6C"/>
<path d="M746.692 433.299C748.487 434.951 750.832 439.655 753.201 441.953C766.856 455.202 784.153 463.251 801.696 469.978C804.733 471.142 819.465 475.531 818.21 479.899C816.777 484.9 814.07 487.08 808.86 485.839C799.626 482.382 790.791 477.935 782.512 472.576C779.365 470.527 762.594 458.026 761.216 457.604C761.48 458.827 761.376 458.185 761.522 459.535C754.61 459.823 752.399 459.111 744.849 460.008C735.604 451.444 738.99 441.525 746.692 433.299Z" fill="#024816"/>
<path d="M959.358 264.16C966.406 265 977.36 277.095 982.43 282.159C984.775 279.964 990.384 276.189 993.225 274.166C994.903 276.458 996.642 278.417 998.491 280.563C994.97 283.098 991.027 286.362 987.573 289.083C991.07 294.248 994.162 299.675 996.825 305.316C998.215 308.461 999.942 312.478 998.748 315.766C993.243 319.735 979.626 302.798 975.756 298.45C973.478 298.995 972.762 299.455 970.613 298.529C968.947 296.59 969.376 297.648 968.935 295.4C969.29 294.7 970.576 292.203 970.288 291.539C967.073 284.111 960.356 277.737 958.079 269.855C957.27 267.056 958.109 266.349 959.358 264.16Z" fill="#029BC2"/>
<path d="M780.811 420.211C800.295 418.943 811.751 427.973 817.298 446.238C813.692 444.757 808.769 443.335 804.96 442.124C788.838 436.918 780.07 433.512 764.695 426.367C770.984 422.419 773.678 421.46 780.811 420.211Z" fill="#024816"/>
<path d="M945.894 850.344C963.516 849.726 959.738 861.09 953.817 871.898C951.466 876.19 949.023 882.919 945.27 885.858C941.865 886.048 931.976 883.972 932.319 878.798C932.503 876.018 935.436 869.626 936.893 866.938C939.44 862.242 942.232 853.939 945.894 850.344Z" fill="#015C6C"/>
<path d="M525.268 759.845C521.407 758.823 485.183 748.23 484.828 747.918L485.38 747.324C489.803 746.418 495.016 744.354 499.537 742.983C509.364 740.093 519.158 737.092 528.916 733.976C530.423 737.221 525.954 754.629 525.268 759.845Z" fill="#A3D048"/>
<path d="M710.458 752.358C712.387 751.953 718.522 747.931 720.689 746.639C719.734 756.595 718.895 765.712 718.473 775.692C709.98 772.68 701.39 769.961 692.707 767.549C691.342 766.832 691.709 767.371 691.299 766.116C692.554 765.149 693.821 764.193 695.089 763.244C700.404 759.301 705.1 756.974 710.458 752.358Z" fill="#D4ECC8"/>
<path d="M798.127 674.637C793.718 634.825 791.875 582.516 806.92 544.677C810.606 535.41 820.537 522.116 831.951 527.411L831.889 528.068C827.609 527.639 823.336 527.534 819.919 530.909C795.782 554.771 798.317 599.882 797.998 631.464C797.858 645.406 800.662 660.309 799.462 673.468L798.127 674.637Z" fill="#000100"/>
<path d="M305.608 493.895C307.903 496.829 312.014 539.232 312.15 546.063C310.847 546.973 309.229 546.664 307.295 546.735L300.014 546.77C301.802 529.912 304.452 510.528 305.608 493.895Z" fill="#FAA502"/>
<path d="M365.135 512.299L365.757 513.018C362.703 524.721 354.704 545.38 350.425 557.194C347.947 556.164 345.504 554.981 343.071 553.843C340.84 552.697 340.722 553.146 340.139 551.404C344.964 541.753 358.779 521.768 365.135 512.299Z" fill="#FAA502"/>
<path d="M246.582 512.239C251.255 515.2 268.129 545.738 272.981 551.388C272.972 551.76 272.963 552.132 272.954 552.504L270.991 553.549C268.276 554.715 265.529 556.148 262.873 557.468C256.964 542.197 252.218 527.342 246.582 512.239Z" fill="#FAA502"/>
<path d="M173.34 593.341C177.974 593.293 215.06 602.988 221.126 604.8C220.522 607.479 219.429 610.838 218.64 613.529C218.326 614.846 218.682 614.307 217.528 615.109C205.827 610.347 184.776 599.209 173.34 593.341Z" fill="#FAA502"/>
<path d="M408.471 546.78C408.908 547.256 408.696 546.926 408.836 547.899C405.444 551.833 381.105 580.414 378.319 580.645L376.581 578.836C374.495 576.78 372.932 574.838 371.066 572.6C383.263 564.025 396.688 555.273 408.471 546.78Z" fill="#FAA502"/>
<path d="M203.539 546.65C207.488 547.767 236.942 568.425 242.352 572.183C241.331 573.501 240.072 574.944 238.989 576.241L234.818 581.089C224.342 570.564 213.333 557.843 203.539 546.65Z" fill="#FAA502"/>
<path d="M433.754 595.922L434.404 596.135C432.938 597.716 398.785 614.27 394.881 615.666C393.75 612.163 392.575 608.673 391.355 605.198C405.216 601.899 419.784 598.978 433.754 595.922Z" fill="#FAA502"/>
<path d="M1042.95 229.429C1045.86 229.592 1046.66 229.834 1048.85 231.773C1059.26 240.995 1049.67 244.718 1042.46 249.972C1039.54 249.189 1034.7 241.064 1032.62 238.019C1035.59 235.168 1039.67 232.065 1042.95 229.429Z" fill="#029BC2"/>
<path d="M961.294 890.432L975.395 890.371L975.328 904.491L961.269 904.509C961.214 899.819 961.226 895.123 961.294 890.432Z" fill="#015C6C"/>
<path d="M680.809 763.66C689.76 757.764 699.367 751.181 708.723 746.087C709.152 749.118 709.097 749.706 710.456 752.357C705.099 756.974 700.402 759.3 695.087 763.244C694.279 761.474 694.059 760.39 692.357 759.539C687.03 760.874 688.162 770.94 678.69 764.419C677.086 763.317 677.239 763.329 675.586 763.274C673.779 762.827 672.377 762.258 670.65 761.603C672.034 761.315 678.996 763.207 680.809 763.66Z" fill="#B5EEFA" fill-opacity="0.415686"/>
<path d="M999.525 890.903L1013.71 890.879L1013.56 904.503L999.752 904.527L999.525 890.903Z" fill="#015C6C"/>
<path d="M598.98 746.632L599.536 747.079C602.631 745.75 615.666 743.356 619.518 743.209C620.277 743.185 620.748 744.452 621.165 745.15C619.934 745.273 619.45 745.518 618.464 745.156C616.254 746.442 616.156 746.014 615.286 747.893C617.172 751.959 622.359 750.306 622.199 753.68C617.883 752.559 613.419 751.463 609.144 750.263C607.123 751.163 599.627 754.341 598.198 755.308L594.642 756.349C593.144 752.976 592.96 753.043 593.615 749.779C594.604 748.8 595.821 748.022 597.007 747.306L594.306 746.369L598.98 746.632Z" fill="#DEEFE0" fill-opacity="0.694118"/>
<path d="M675.586 763.274C677.239 763.329 677.086 763.317 678.69 764.419C688.163 770.94 687.03 760.874 692.357 759.539C694.059 760.39 694.28 761.474 695.088 763.244C693.82 764.193 692.553 765.148 691.298 766.115C691.708 767.37 691.341 766.832 692.706 767.548L692.412 768.375L692.804 769.275C692.43 772.024 693.08 771.148 691.53 772.557C689.626 772.991 689.449 773.034 687.501 773.071C683.258 772.22 683.117 772.085 679.517 774.473L678.978 774.834C678.103 773.812 674.337 771.154 672.727 769.728L672.812 768.846C674.533 766.483 674.588 766.085 675.586 763.274Z" fill="#DEEFE0" fill-opacity="0.709804"/>
<path d="M1065.35 835.129L1078.24 835.172C1078.29 838.956 1078.56 844.865 1077.96 848.398C1073.16 848.183 1070.08 848.018 1065.33 848.44L1065.35 835.129Z" fill="#029BC2"/>
<path d="M1025.63 862.492L1026.22 862.835C1026.68 865.97 1026.42 872.087 1026.38 875.497C1022.54 875.35 1018.05 875.485 1014.16 875.51C1013.02 874.193 1013.4 864.855 1013.4 862.474L1025.63 862.492Z" fill="#029BC2"/>
<path d="M556.209 731.129C560.191 731.362 579.289 735.403 582.752 736.872L582.121 737.668L582.426 738.458C581.438 741.134 581.244 740.748 578.492 742.003C570.97 740.332 563.495 737.809 556.168 736.358L555.37 736.205L554.908 735.476L556.441 734.435C557.26 732.666 557.027 733.639 556.209 731.129Z" fill="#BCE28F" fill-opacity="0.160784"/>
<path d="M496.111 722.96C496.316 722.538 496.925 721.711 497.216 721.289C499.691 720.046 502.079 720.162 504.906 720.095C509.873 720.321 525.223 724.001 531.696 725.079L534.708 725.979C529.658 729.047 528.557 725.244 525.283 726.928C525.283 728.526 525.621 729.053 526.186 730.547L525.548 730.314C524.021 727.969 500.497 723.817 496.111 722.96Z" fill="#DEEFE0" fill-opacity="0.905882"/>
<path d="M977.336 867.611L989.515 867.703C989.625 871.818 989.558 875.412 989.423 879.527L977.66 879.735L977.336 867.611Z" fill="#029BC2"/>
<path d="M1046.43 850.143L1058.2 850.173C1058.28 854.031 1058.19 858.158 1058.16 862.033C1054.13 861.942 1050.38 861.997 1046.35 862.083L1046.43 850.143Z" fill="#029BC2"/>
<path d="M582.753 736.872C586.048 737.625 591.586 738.709 594.638 739.676L598.972 740.632C601.918 741.568 604.262 742.26 607.29 743.001L606.778 743.846C603.255 744.403 601.576 744.214 598.981 746.632L594.308 746.369C590.719 744.979 582.522 743.062 578.494 742.003C581.246 740.748 581.439 741.134 582.428 738.458L582.123 737.668L582.753 736.872Z" fill="#BCE28F" fill-opacity="0.0156863"/>
<path d="M645.087 730.167C644.707 732.745 644.315 731.845 645.43 733.388L646.924 733.976L647.046 734.496C640.133 737.619 633.11 740.497 625.989 743.123C625.407 742.45 625.101 741.874 624.63 741.121C624.507 738.317 626.124 739.052 625.677 736.884C629.644 734.955 641.003 730.645 645.087 730.167Z" fill="#DEEFE0" fill-opacity="0.670588"/>
<path d="M594.169 782.434L597.396 783.37L602.167 785.213C603.627 789.371 599.5 791.392 595.994 792.035L592.702 791.379L591.999 790.743C590.258 788.857 589.577 787.969 589.93 785.446C591.303 783.793 592.293 783.444 594.169 782.434Z" fill="#94E5F6" fill-opacity="0.223529"/>
<path d="M625.678 736.884C626.125 739.051 624.509 738.317 624.631 741.121C625.103 741.874 625.409 742.45 625.99 743.123L621.165 745.15C620.749 744.452 620.278 743.184 619.518 743.209C615.667 743.356 602.632 745.75 599.537 747.079L598.98 746.632C601.576 744.213 603.255 744.403 606.778 743.846L607.289 743.001C610.14 743.068 621.888 738.206 625.678 736.884Z" fill="#D4ECC8" fill-opacity="0.541176"/>
<path d="M965.695 832.937L974.604 833.083L974.568 842.011L965.518 842.078C965.493 838.943 965.579 836.059 965.695 832.937Z" fill="#029BC2"/>
<path d="M960.393 301.019C962.407 302.554 963.399 304.255 964.869 306.311C962.34 308.765 959.75 311.153 957.092 313.472L952.359 308.438C955.029 305.847 957.625 303.5 960.393 301.019Z" fill="#029BC2"/>
<path d="M966.883 335.272C969.143 335.607 970.582 338.165 972.008 340.067L963.81 347.155C961.636 345.71 960.564 344.907 960.246 342.397C961.471 339.631 964.52 337.386 966.883 335.272Z" fill="#029BC2"/>
<path d="M969.499 313.27C971.74 313.841 973.172 316.269 974.624 318.168L967.913 324.201C965.843 323.78 963.939 321.252 962.457 319.621C964.827 316.985 966.78 315.499 969.499 313.27Z" fill="#0DAED3"/>
<path d="M957.123 324.323C959.156 325.476 960.344 327.23 961.826 329.043C959.676 331.33 957.466 333.11 955.072 335.132C952.788 334.472 951.729 332.635 950.271 330.762C952.402 328.605 954.882 326.398 957.123 324.323Z" fill="#0DAED3"/>
<path d="M946.947 313.313C949.17 314.352 950.095 316.164 951.466 318.198C948.87 320.876 947.462 322.126 944.608 324.483C942.747 322.711 941.835 321.487 940.23 319.45C942.374 317.266 944.651 315.334 946.947 313.313Z" fill="#029BC2"/>
<path d="M490.707 717.284C495.371 717.952 500.409 718.637 504.908 720.095C502.08 720.162 499.693 720.046 497.217 721.289C496.926 721.711 496.317 722.538 496.113 722.96L487.088 720.952C489.95 719.188 489.095 720.187 490.707 717.284Z" fill="#D4ECC8" fill-opacity="0.560784"/>
<path d="M833.444 610.369C832.63 605.675 829.924 599.606 829.477 594.437C831.307 597.138 834.479 605.502 835.875 608.908L833.444 610.369Z" fill="#000100" fill-opacity="0.0509804"/>
<path d="M683.362 604.454C679.78 603.164 677.318 600.034 675.23 597.058L676.063 597.032C680.178 598.911 681.035 600.568 684.648 602.877L685.278 603.275L683.362 604.454Z" fill="#032305" fill-opacity="0.0156863"/>
<path d="M431.84 728.061L429.215 730.308C430.04 731.085 430.799 731.832 431.597 732.634C427.47 731.875 423.185 731.251 419.027 730.589C423.206 729.659 427.62 728.875 431.84 728.061Z" fill="#77B214" fill-opacity="0.980392"/>
<path d="M782.99 642.4C783.156 637.269 783.18 632.033 784.019 626.97C784.79 629.597 784.478 640.281 784.441 643.533L782.99 642.4Z" fill="#2D4A41" fill-opacity="0.984314"/>
</svg>
